<?xml version="1.0" encoding="UTF-8"?>
<svg data-bbox="20.112 20.112 159.776 159.776" viewBox="0 0 200 200" height="200" width="200" xmlns="http://www.w3.org/2000/svg" data-type="color">
    <g>
        <path fill="#ffffff" d="M178.513 100c0 43.362-35.151 78.513-78.513 78.513S21.487 143.362 21.487 100 56.638 21.487 100 21.487 178.513 56.638 178.513 100z" data-color="1"/>
        <path d="M43.484 43.484c-31.163 31.163-31.163 81.869 0 113.032s81.869 31.163 113.032 0 31.163-81.869 0-113.032-81.869-31.162-113.032 0zm111.417 111.417c-30.272 30.272-79.53 30.272-109.802 0s-30.272-79.53 0-109.802 79.53-30.272 109.802 0 30.272 79.53 0 109.802zm-51.672-71.048 3.229-3.229 20.184 20.184-19.377 19.377-3.229-3.229 13.769-13.769-41.988.712-.077-4.565 42.253-.716-14.764-14.765z" fill="#2d2727" data-color="2"/>
    </g>
</svg>
